# xmcd CD database file
#
# Track frame offsets:
#	150
#	9126
#	22291
#	33103
#	41448
#	56440
#	69167
#	77264
#	95247
#	108710
#	121456
#	135503
#	142251
#
# Disc length: 2098 seconds
#
# Revision: 2
# Processed by: cddbd v1.5.2PL0 Copyright (c) Steve Scherf et al.
# Submitted via: jetAudio 7
#
DISCID=a808300d
DTITLE=No To Co - No To Co
DYEAR=1900
DGENRE=Country
TTITLE0=Te opolskie dziouchy
TTITLE1=Kocham swoje miasto
TTITLE2=Nikifor
TTITLE3=Zielony Mosteczek
TTITLE4=Inne Kwiaty
TTITLE5=Krowi dzwonek
TTITLE6=Kole mej chalupy
TTITLE7=Swieci sie Warszawa
TTITLE8=Pod Kotwica
TTITLE9=Nie bylem nigdy w San Francisco
TTITLE10=Kwiaciarka Lili
TTITLE11=Z tamtej strony ladu
TTITLE12=Po tem kwiat czerwony
EXTD=
EXTT0=
EXTT1=
EXTT2=
EXTT3=
EXTT4=
EXTT5=
EXTT6=
EXTT7=
EXTT8=
EXTT9=
EXTT10=
EXTT11=
EXTT12=
PLAYORDER=
